<?xml version="1.0" encoding="UTF-8" standalone="no"?>
<!-- Created with Inkscape (http://www.inkscape.org/) -->

<svg
   version="1.1"
   id="svg51"
   width="546.1333"
   height="546.1333"
   viewBox="0 0 546.1333 546.1333"
   sodipodi:docname="wind-simple.svg"
   inkscape:version="1.2.1 (9c6d41e4, 2022-07-14)"
   xmlns:inkscape="http://www.inkscape.org/namespaces/inkscape"
   xmlns:sodipodi="http://sodipodi.sourceforge.net/DTD/sodipodi-0.dtd"
   xmlns="http://www.w3.org/2000/svg"
   xmlns:svg="http://www.w3.org/2000/svg">
  <defs
     id="defs55" />
  <sodipodi:namedview
     id="namedview53"
     pagecolor="#ffffff"
     bordercolor="#cccccc"
     borderopacity="1"
     inkscape:showpageshadow="0"
     inkscape:pageopacity="1"
     inkscape:pagecheckerboard="0"
     inkscape:deskcolor="#d1d1d1"
     showgrid="false"
     inkscape:zoom="1.5971324"
     inkscape:cx="240.43092"
     inkscape:cy="290.52069"
     inkscape:window-width="1680"
     inkscape:window-height="1050"
     inkscape:window-x="0"
     inkscape:window-y="0"
     inkscape:window-maximized="0"
     inkscape:current-layer="g57" />
  <g
     inkscape:groupmode="layer"
     inkscape:label="Image"
     id="g57">
    <path
       style="fill:#6EE7B7;stroke-width:0.602232"
       d="m 227.03201,350.43775 c -1.9926,-1.22086 -2.8218,-3.47763 -2.1293,-5.7951 0.8169,-2.73366 1.9437,-3.15737 8.3966,-3.15737 5.3354,0 5.8899,0.11913 7.0063,1.50546 1.496,1.85777 1.5538,4.36277 0.1473,6.39066 -0.9697,1.39803 -1.5566,1.55209 -6.5515,1.71963 -3.7062,0.12433 -5.9351,-0.0909 -6.8694,-0.66328 z m 27.3101,0.34302 c -2.6753,-1.14758 -3.6792,-5.02267 -1.9967,-7.70763 0.7709,-1.23016 2.1297,-1.271 52.83,-1.58786 l 52.0387,-0.32524 2.9819,-1.92685 c 8.456,-5.46411 9.6554,-18.22941 2.4283,-25.84635 -2.8358,-2.98885 -5.5114,-3.98046 -9.8669,-3.65692 -6.6254,0.49217 -11.4228,5.79402 -12.5494,13.86886 -0.6408,4.59343 -1.947,6.40401 -4.5575,6.31741 -2.9297,-0.0972 -3.9962,-2.16615 -3.658,-7.0967 0.5894,-8.59218 5.5335,-16.68815 12.5644,-20.57384 3.4238,-1.89226 4.2032,-2.06483 9.325,-2.06483 5.1622,0 5.8645,0.15877 9.1999,2.0802 8.7999,5.06931 13.7935,16.02183 12.2855,26.94578 -1.5337,11.11028 -9.0593,19.81729 -18.5052,21.41038 -3.7334,0.62967 -101.0714,0.78498 -102.52,0.16359 z m -62.8366,-31.46563 c -4.1464,-1.78939 -3.1723,-9.05213 1.2141,-9.05213 3.1336,0 5.1284,3.89977 3.6468,7.12944 -0.7143,1.55695 -3.3201,2.58765 -4.8609,1.92269 z m 17.9327,0.0918 c -2.7097,-1.29534 -3.5727,-5.36883 -1.6599,-7.83458 1.0024,-1.29217 1.6245,-1.30932 47.4866,-1.30932 45.7274,0 46.4887,0.0208 47.586,1.30092 1.5028,1.75318 1.4729,5.27471 -0.058,6.89168 -1.1317,1.19498 -2.7954,1.24366 -46.6967,1.36638 -25.0377,0.07 -46.0336,-0.11679 -46.6576,-0.41508 z m 183.2323,-0.096 c -2.8964,-1.35105 -3.6125,-4.47199 -1.6828,-7.33402 l 1.1556,-1.71388 h 10.7918 10.7917 l 1.1556,1.71388 c 0.6356,0.94263 1.1556,2.0997 1.1556,2.57125 0,1.92365 -1.3684,4.14662 -2.9479,4.78898 -2.0874,0.84888 -18.5889,0.82769 -20.4196,-0.0262 z m -254.1529,-30.96286 c -1.4466,-0.33494 -3.4959,-3.12184 -3.4959,-4.75406 0,-0.61903 0.5162,-1.89109 1.1471,-2.82683 l 1.1472,-1.70134 124.1671,-0.19059 c 115.0034,-0.17652 124.3932,-0.27218 127.2296,-1.29619 14.1986,-5.12602 23.4523,-19.44156 23.414,-36.22205 -0.035,-15.36996 -9.8043,-30.32457 -22.6941,-34.7394 -10.5876,-3.62632 -22.1857,-0.36407 -30.3052,8.52413 -5.9475,6.51044 -8.9887,13.72627 -9.9324,23.56611 -0.3319,3.46067 -0.8445,5.71584 -1.4876,6.54487 -1.3677,1.76318 -4.3431,1.66236 -5.8637,-0.1987 -1.0889,-1.33267 -1.1684,-1.95793 -0.8892,-6.99248 0.6035,-10.8814 4.3824,-20.29591 11.51,-28.67525 6.9928,-8.22081 13.8374,-12.17413 23.5042,-13.57549 14.4467,-2.0943 29.4904,5.97394 37.5678,20.14833 13.5536,23.78406 6.2941,55.22728 -15.6196,67.65341 -9.2794,5.26184 3.2565,4.80472 -134.9324,4.92034 -67.7729,0.0567 -123.783,-0.0265 -124.4669,-0.18481 z m 24.4231,-33.13696 c -0.6355,-0.94263 -1.1556,-2.22034 -1.1556,-2.83937 0,-0.61902 0.5201,-1.89673 1.1556,-2.83936 2.2754,-3.37457 7.208,-1.43151 7.208,2.83936 0,4.27089 -4.9326,6.21394 -7.208,2.83937 z m 18.2105,0.57557 c -1.6321,-2.1128 -1.7289,-4.36517 -0.2724,-6.34056 1.187,-1.6098 1.7971,-1.84252 5.5717,-2.12512 5.1546,-0.38591 7.9415,0.15935 9.3776,1.83471 1.4074,1.64182 1.3832,4.54755 -0.053,6.3457 -1.04,1.30232 -1.6738,1.42358 -7.4408,1.42358 -5.2971,0 -6.4444,-0.18182 -7.1833,-1.13831 z m 26.6271,-0.17102 c -1.3921,-1.79455 -1.2945,-4.94219 0.2075,-6.69499 l 1.2233,-1.42741 43.8936,-0.32523 43.8937,-0.32523 3.6258,-2.00461 c 17.9642,-9.9319 17.0056,-40.20265 -1.5338,-48.43509 -4.1375,-1.83724 -10.8775,-1.99994 -15.0548,-0.36339 -8.5109,3.3344 -14.1865,12.13541 -15.4888,24.01834 -0.4067,3.71076 -1.8341,5.64467 -4.1664,5.64467 -2.6987,0 -3.903,-1.96493 -3.903,-6.36797 0,-18.50938 14.263,-34.27453 30.9452,-34.20434 13.7881,0.058 25.6114,10.68039 29.5701,26.56633 1.2466,5.00238 1.2457,13.89828 0,18.93948 -3.039,12.28029 -11.5594,22.06741 -22.0452,25.32263 -2.5609,0.79501 -10.1934,0.95197 -46.6061,0.95842 -42.9328,0.008 -43.5578,-0.0107 -44.5593,-1.30161 z m 13.6359,-31.1125 c -1.6771,-1.58424 -1.6992,-4.87678 -0.046,-6.80476 1.1747,-1.36968 1.6539,-1.4274 11.8516,-1.4274 10.4961,0 10.6405,0.0189 11.6929,1.5356 1.3815,1.99106 1.3592,4.95158 -0.05,6.5952 -1.0365,1.2091 -1.8586,1.30092 -11.6473,1.30092 -9.4047,0 -10.668,-0.12841 -11.8019,-1.19956 z"
       id="path844" />
  </g>
</svg>
